<svg xmlns="http://www.w3.org/2000/svg" xmlns:xlink="http://www.w3.org/1999/xlink" id="Layer_2" x="0px" y="0px" viewBox="0 0 280.2 159.3" xml:space="preserve">
<g>
	<polygon points="219.6,75.9 139.8,84.3 61.3,76.8 0,76.8 0,78.8 61.2,78.8 139.7,86.3 139.8,86.3 219.6,77.9 280.2,77.9    280.2,75.9  "/>
	<path d="M138.8,76.8L138.8,76.8l0.8,0.1l0.1,0l0.1,0l0.1,0l0.2,0h0.8v-0.1l78.8-8.3h53.7v-2h-53V25.9L140.1,0.5l-0.3-0.1l-80,25.3   v41.7H7.6v2l53.1,0L138.8,76.8z M138.8,74.8l-6.5-0.6V4.9l6.5-2V74.8z M130.3,74l-6.8-0.7V7.7l6.8-2.2V74z M121.4,73.1l-6.3-0.6   V10.3l6.3-2V73.1z M113.2,72.3l-7.3-0.7V13.2l7.3-2.3V72.3z M103.9,71.5L97,70.8V16l6.8-2.2V71.5z M95,70.6L88.3,70V18.8l6.7-2.1   V70.6z M86.3,69.8l-7.1-0.7h0.5V21.5l6.6-2.1V69.8z M77.7,68.9l-7.4-0.7V24.5l7.4-2.4V68.9z M218.3,66.6l-77.6,8.2v-72l77.6,24.5   V66.6z M68.3,25.1V68l-6.5-0.6V27.1L68.3,25.1z"/>
</g>
<g>
	<path d="M15.6,132.1c-0.2,0.4-0.5,0.8-0.9,1.1c-0.4,0.3-0.8,0.6-1.4,0.7s-1.1,0.3-1.8,0.3c-1,0-2-0.2-2.8-0.5s-1.7-0.9-2.4-1.6   l0.6-0.7c0.4,0.3,0.7,0.6,1.1,0.9c0.4,0.2,0.7,0.4,1.1,0.6c0.4,0.2,0.8,0.3,1.2,0.4c0.4,0.1,0.9,0.1,1.3,0.1c0.5,0,0.9-0.1,1.3-0.2   c0.4-0.1,0.8-0.3,1-0.5c0.3-0.2,0.5-0.5,0.7-0.8c0.2-0.3,0.2-0.7,0.2-1v0c0-0.3-0.1-0.7-0.2-0.9c-0.1-0.3-0.3-0.5-0.6-0.7   c-0.3-0.2-0.7-0.4-1.1-0.6c-0.5-0.2-1.1-0.3-1.8-0.5c-0.8-0.2-1.5-0.4-2-0.6c-0.6-0.2-1-0.5-1.4-0.8c-0.4-0.3-0.6-0.6-0.8-1   c-0.2-0.4-0.2-0.8-0.2-1.3v0c0-0.5,0.1-0.9,0.3-1.4c0.2-0.4,0.5-0.8,0.9-1.1c0.4-0.3,0.8-0.6,1.3-0.7s1.1-0.3,1.7-0.3   c0.9,0,1.8,0.1,2.5,0.4c0.7,0.3,1.4,0.7,2,1.2l-0.6,0.8c-0.6-0.5-1.3-0.9-1.9-1.1c-0.6-0.2-1.3-0.3-2-0.3c-0.5,0-0.9,0.1-1.3,0.2   s-0.7,0.3-1,0.5c-0.3,0.2-0.5,0.5-0.6,0.8s-0.2,0.6-0.2,1v0c0,0.3,0.1,0.7,0.2,0.9c0.1,0.3,0.3,0.5,0.6,0.8   c0.3,0.2,0.7,0.4,1.2,0.6c0.5,0.2,1.1,0.4,1.9,0.5c1.5,0.3,2.6,0.8,3.3,1.3c0.7,0.6,1,1.3,1,2.3v0   C15.9,131.2,15.8,131.7,15.6,132.1z"/>
	<path d="M32.8,133c-0.4,0.3-0.8,0.5-1.2,0.7s-0.9,0.4-1.4,0.5c-0.5,0.1-1,0.2-1.6,0.2c-0.9,0-1.8-0.2-2.6-0.5   c-0.8-0.3-1.5-0.8-2.1-1.4c-0.6-0.6-1-1.3-1.4-2.1s-0.5-1.7-0.5-2.6v0c0-0.9,0.2-1.8,0.5-2.6s0.8-1.5,1.4-2.2   c0.6-0.6,1.3-1.1,2.1-1.5s1.7-0.5,2.6-0.5c0.6,0,1.1,0,1.6,0.2c0.5,0.1,0.9,0.2,1.3,0.4c0.4,0.2,0.8,0.4,1.1,0.7   c0.4,0.3,0.7,0.5,1,0.9l-0.7,0.7c-0.3-0.3-0.6-0.5-0.9-0.8c-0.3-0.2-0.6-0.4-1-0.6s-0.7-0.3-1.2-0.4c-0.4-0.1-0.9-0.1-1.4-0.1   c-0.8,0-1.5,0.1-2.2,0.5c-0.7,0.3-1.3,0.7-1.8,1.2c-0.5,0.5-0.9,1.2-1.2,1.9c-0.3,0.7-0.4,1.5-0.4,2.3v0c0,0.8,0.1,1.6,0.4,2.3   c0.3,0.7,0.7,1.3,1.2,1.9c0.5,0.5,1.1,0.9,1.8,1.3c0.7,0.3,1.4,0.5,2.2,0.5c0.9,0,1.8-0.2,2.5-0.5c0.7-0.3,1.4-0.9,2-1.5l0.7,0.6   C33.6,132.4,33.2,132.7,32.8,133z"/>
	<path d="M52,130.1c-0.3,0.8-0.8,1.5-1.3,2.2c-0.6,0.6-1.3,1.1-2.1,1.5c-0.8,0.4-1.7,0.6-2.7,0.6c-1,0-1.9-0.2-2.7-0.6   s-1.5-0.9-2.1-1.5c-0.6-0.6-1-1.3-1.3-2.1c-0.3-0.8-0.5-1.7-0.5-2.6v0c0-0.9,0.2-1.8,0.5-2.6s0.8-1.5,1.3-2.2   c0.6-0.6,1.3-1.1,2.1-1.5c0.8-0.4,1.7-0.6,2.7-0.6c1,0,1.9,0.2,2.7,0.6c0.8,0.4,1.5,0.9,2.1,1.5c0.6,0.6,1,1.3,1.3,2.1   c0.3,0.8,0.5,1.7,0.5,2.6c0,0,0,0,0,0C52.5,128.4,52.3,129.3,52,130.1z M51.5,127.5c0-0.8-0.1-1.6-0.4-2.3   c-0.3-0.7-0.7-1.3-1.2-1.9c-0.5-0.5-1.1-1-1.8-1.3c-0.7-0.3-1.4-0.5-2.2-0.5s-1.6,0.2-2.2,0.5c-0.7,0.3-1.3,0.7-1.8,1.3   s-0.9,1.2-1.2,1.9c-0.3,0.7-0.4,1.5-0.4,2.3v0c0,0.8,0.1,1.6,0.4,2.3c0.3,0.7,0.7,1.3,1.2,1.9c0.5,0.5,1.1,1,1.8,1.3   s1.4,0.5,2.2,0.5s1.6-0.2,2.2-0.5c0.7-0.3,1.3-0.7,1.8-1.3s0.9-1.2,1.2-1.9C51.3,129.1,51.5,128.4,51.5,127.5L51.5,127.5z"/>
	<path d="M68.6,126.8c-0.3,0.5-0.6,1-1.1,1.3c-0.5,0.4-1,0.6-1.6,0.8c-0.6,0.2-1.3,0.3-2,0.3h-3.5v4.9h-1V121h4.8   c0.7,0,1.4,0.1,2,0.3c0.6,0.2,1.1,0.4,1.5,0.8s0.8,0.8,1,1.3c0.2,0.5,0.4,1.1,0.4,1.7v0C69.1,125.7,68.9,126.3,68.6,126.8z    M68.1,125c0-0.5-0.1-1-0.3-1.4c-0.2-0.4-0.5-0.7-0.8-1c-0.4-0.3-0.8-0.5-1.3-0.6c-0.5-0.1-1-0.2-1.6-0.2h-3.7v6.5H64   c0.6,0,1.2-0.1,1.7-0.2c0.5-0.2,0.9-0.4,1.3-0.7c0.4-0.3,0.6-0.6,0.8-1C68,126,68.1,125.6,68.1,125L68.1,125z"/>
	<path d="M75.6,134.1V121h9.3v0.9h-8.4v5.2h7.5v0.9h-7.5v5.3H85v0.9H75.6z"/>
	<path d="M111.1,133c-0.4,0.3-0.8,0.5-1.2,0.7s-0.9,0.4-1.4,0.5c-0.5,0.1-1,0.2-1.6,0.2c-0.9,0-1.8-0.2-2.6-0.5   c-0.8-0.3-1.5-0.8-2.1-1.4c-0.6-0.6-1-1.3-1.4-2.1s-0.5-1.7-0.5-2.6v0c0-0.9,0.2-1.8,0.5-2.6s0.8-1.5,1.4-2.2   c0.6-0.6,1.3-1.1,2.1-1.5s1.7-0.5,2.6-0.5c0.6,0,1.1,0,1.6,0.2c0.5,0.1,0.9,0.2,1.3,0.4c0.4,0.2,0.8,0.4,1.1,0.7   c0.4,0.3,0.7,0.5,1,0.9l-0.7,0.7c-0.3-0.3-0.6-0.5-0.9-0.8c-0.3-0.2-0.6-0.4-1-0.6s-0.7-0.3-1.2-0.4c-0.4-0.1-0.9-0.1-1.4-0.1   c-0.8,0-1.5,0.1-2.2,0.5c-0.7,0.3-1.3,0.7-1.8,1.2c-0.5,0.5-0.9,1.2-1.2,1.9c-0.3,0.7-0.4,1.5-0.4,2.3v0c0,0.8,0.1,1.6,0.4,2.3   c0.3,0.7,0.7,1.3,1.2,1.9c0.5,0.5,1.1,0.9,1.8,1.3c0.7,0.3,1.4,0.5,2.2,0.5c0.9,0,1.8-0.2,2.5-0.5c0.7-0.3,1.4-0.9,2-1.5l0.7,0.6   C111.8,132.4,111.5,132.7,111.1,133z"/>
	<path d="M130.2,130.1c-0.3,0.8-0.8,1.5-1.3,2.2c-0.6,0.6-1.3,1.1-2.1,1.5c-0.8,0.4-1.7,0.6-2.7,0.6c-1,0-1.9-0.2-2.7-0.6   s-1.5-0.9-2.1-1.5c-0.6-0.6-1-1.3-1.3-2.1c-0.3-0.8-0.5-1.7-0.5-2.6v0c0-0.9,0.2-1.8,0.5-2.6s0.8-1.5,1.3-2.2   c0.6-0.6,1.3-1.1,2.1-1.5c0.8-0.4,1.7-0.6,2.7-0.6c1,0,1.9,0.2,2.7,0.6c0.8,0.4,1.5,0.9,2.1,1.5c0.6,0.6,1,1.3,1.3,2.1   c0.3,0.8,0.5,1.7,0.5,2.6c0,0,0,0,0,0C130.7,128.4,130.6,129.3,130.2,130.1z M129.7,127.5c0-0.8-0.1-1.6-0.4-2.3   c-0.3-0.7-0.7-1.3-1.2-1.9c-0.5-0.5-1.1-1-1.8-1.3c-0.7-0.3-1.4-0.5-2.2-0.5s-1.6,0.2-2.2,0.5c-0.7,0.3-1.3,0.7-1.8,1.3   s-0.9,1.2-1.2,1.9c-0.3,0.7-0.4,1.5-0.4,2.3v0c0,0.8,0.1,1.6,0.4,2.3c0.3,0.7,0.7,1.3,1.2,1.9c0.5,0.5,1.1,1,1.8,1.3   s1.4,0.5,2.2,0.5s1.6-0.2,2.2-0.5c0.7-0.3,1.3-0.7,1.8-1.3s0.9-1.2,1.2-1.9C129.6,129.1,129.7,128.4,129.7,127.5L129.7,127.5z"/>
	<path d="M146.9,126.8c-0.3,0.5-0.6,1-1.1,1.3c-0.5,0.4-1,0.6-1.6,0.8c-0.6,0.2-1.3,0.3-2,0.3h-3.5v4.9h-1V121h4.8   c0.7,0,1.4,0.1,2,0.3c0.6,0.2,1.1,0.4,1.5,0.8c0.4,0.3,0.8,0.8,1,1.3c0.2,0.5,0.4,1.1,0.4,1.7v0   C147.3,125.7,147.2,126.3,146.9,126.8z M146.3,125c0-0.5-0.1-1-0.3-1.4c-0.2-0.4-0.5-0.7-0.8-1c-0.3-0.3-0.8-0.5-1.3-0.6   c-0.5-0.1-1-0.2-1.6-0.2h-3.7v6.5h3.6c0.6,0,1.2-0.1,1.7-0.2c0.5-0.2,0.9-0.4,1.3-0.7c0.4-0.3,0.6-0.6,0.8-1   C146.2,126,146.3,125.6,146.3,125L146.3,125z"/>
	<path d="M153.8,134.1V121h9.3v0.9h-8.4v5.2h7.5v0.9h-7.5v5.3h8.5v0.9H153.8z"/>
	<path d="M180.2,134.1l-9.2-11.7v11.7H170V121h0.9l9.1,11.4V121h0.9v13.1H180.2z"/>
	<path d="M197.8,134.1v-6.1h-8.4v6.1h-1V121h1v6.1h8.4V121h1v13.1H197.8z"/>
	<path d="M217.3,134.1l-1.7-3.7h-7.7l-1.7,3.7h-1l6.1-13.2h0.9l6.1,13.2H217.3z M211.8,121.9l-3.5,7.6h6.9L211.8,121.9z"/>
	<path d="M233,133.7c-0.9,0.4-1.9,0.6-2.9,0.6c-1,0-2-0.2-2.8-0.5c-0.8-0.4-1.5-0.8-2.1-1.5c-0.6-0.6-1-1.3-1.3-2.1   c-0.3-0.8-0.4-1.7-0.4-2.6v0c0-0.9,0.2-1.7,0.5-2.6c0.3-0.8,0.7-1.5,1.3-2.2s1.3-1.1,2.1-1.5s1.7-0.6,2.7-0.6c0.5,0,1,0,1.5,0.1   c0.4,0.1,0.9,0.2,1.2,0.3c0.4,0.1,0.7,0.3,1.1,0.5c0.3,0.2,0.7,0.5,1,0.7l-0.6,0.7c-0.5-0.5-1.1-0.8-1.8-1.1   c-0.7-0.3-1.5-0.5-2.5-0.5c-0.8,0-1.5,0.2-2.2,0.5s-1.2,0.7-1.7,1.3c-0.5,0.5-0.9,1.2-1.1,1.9c-0.3,0.7-0.4,1.5-0.4,2.2v0   c0,0.8,0.1,1.6,0.4,2.4c0.3,0.7,0.6,1.3,1.1,1.9c0.5,0.5,1.1,0.9,1.8,1.2c0.7,0.3,1.5,0.4,2.4,0.4c0.4,0,0.8,0,1.2-0.1   c0.4-0.1,0.8-0.2,1.1-0.3c0.4-0.1,0.7-0.3,1-0.5c0.3-0.2,0.6-0.4,0.8-0.6v-3.8h-4.4v-0.9h5.3v5C234.6,132.9,233.8,133.3,233,133.7z   "/>
	<path d="M242.3,134.1V121h9.3v0.9h-8.4v5.2h7.5v0.9h-7.5v5.3h8.5v0.9H242.3z"/>
	<path d="M268.7,134.1l-9.2-11.7v11.7h-0.9V121h0.9l9.1,11.4V121h0.9v13.1H268.7z"/>
</g>
<g>
	<path d="M63.1,156.5c-0.2,0.4-0.4,0.7-0.7,1c-0.3,0.3-0.7,0.5-1.1,0.7s-0.9,0.2-1.4,0.2h-2.2V152H60c0.5,0,1,0.1,1.4,0.2   c0.4,0.2,0.8,0.4,1.1,0.7c0.3,0.3,0.5,0.6,0.7,1c0.2,0.4,0.3,0.8,0.3,1.3v0C63.4,155.7,63.3,156.1,63.1,156.5z M62.9,155.2   c0-0.4-0.1-0.7-0.2-1.1c-0.1-0.3-0.3-0.6-0.6-0.9c-0.3-0.3-0.6-0.5-0.9-0.6c-0.4-0.1-0.8-0.2-1.2-0.2h-1.7v5.6H60   c0.5,0,0.9-0.1,1.2-0.2c0.4-0.1,0.7-0.3,0.9-0.6c0.3-0.3,0.4-0.5,0.6-0.9C62.8,156,62.9,155.6,62.9,155.2L62.9,155.2z"/>
	<path d="M66.9,158.5V152h4.6v0.4h-4.1v2.6h3.7v0.4h-3.7v2.6h4.2v0.4H66.9z"/>
	<path d="M79.2,157.5c-0.1,0.2-0.3,0.4-0.4,0.6c-0.2,0.2-0.4,0.3-0.7,0.4c-0.3,0.1-0.6,0.1-0.9,0.1c-0.5,0-1-0.1-1.4-0.3   s-0.8-0.4-1.2-0.8l0.3-0.4c0.2,0.2,0.4,0.3,0.5,0.4c0.2,0.1,0.4,0.2,0.5,0.3c0.2,0.1,0.4,0.1,0.6,0.2c0.2,0,0.4,0.1,0.7,0.1   s0.5,0,0.7-0.1c0.2-0.1,0.4-0.2,0.5-0.3s0.3-0.2,0.3-0.4c0.1-0.2,0.1-0.3,0.1-0.5v0c0-0.2,0-0.3-0.1-0.5c-0.1-0.1-0.1-0.3-0.3-0.4   c-0.1-0.1-0.3-0.2-0.6-0.3s-0.5-0.2-0.9-0.2c-0.4-0.1-0.7-0.2-1-0.3s-0.5-0.2-0.7-0.4c-0.2-0.1-0.3-0.3-0.4-0.5   c-0.1-0.2-0.1-0.4-0.1-0.7v0c0-0.2,0.1-0.5,0.2-0.7c0.1-0.2,0.2-0.4,0.4-0.5c0.2-0.2,0.4-0.3,0.7-0.4c0.3-0.1,0.5-0.1,0.8-0.1   c0.5,0,0.9,0.1,1.2,0.2c0.3,0.1,0.7,0.3,1,0.6l-0.3,0.4c-0.3-0.3-0.6-0.5-0.9-0.6c-0.3-0.1-0.6-0.2-1-0.2c-0.2,0-0.5,0-0.7,0.1   c-0.2,0.1-0.4,0.2-0.5,0.3c-0.1,0.1-0.2,0.2-0.3,0.4c-0.1,0.1-0.1,0.3-0.1,0.5v0c0,0.2,0,0.3,0.1,0.5c0.1,0.1,0.1,0.3,0.3,0.4   c0.1,0.1,0.3,0.2,0.6,0.3s0.6,0.2,0.9,0.3c0.8,0.2,1.3,0.4,1.6,0.7c0.3,0.3,0.5,0.7,0.5,1.1v0C79.4,157.1,79.4,157.3,79.2,157.5z"/>
	<path d="M83,158.5V152h0.5v6.5H83z"/>
	<path d="M91.8,158.3c-0.4,0.2-0.9,0.3-1.5,0.3c-0.5,0-1-0.1-1.4-0.3c-0.4-0.2-0.7-0.4-1-0.7s-0.5-0.7-0.6-1.1   c-0.1-0.4-0.2-0.8-0.2-1.3v0c0-0.4,0.1-0.9,0.2-1.3s0.4-0.8,0.6-1.1c0.3-0.3,0.6-0.6,1-0.7c0.4-0.2,0.8-0.3,1.3-0.3   c0.3,0,0.5,0,0.7,0.1s0.4,0.1,0.6,0.2s0.4,0.2,0.5,0.3c0.2,0.1,0.3,0.2,0.5,0.4l-0.3,0.4c-0.3-0.2-0.5-0.4-0.9-0.6   s-0.7-0.2-1.2-0.2c-0.4,0-0.8,0.1-1.1,0.2c-0.3,0.2-0.6,0.4-0.8,0.6c-0.2,0.3-0.4,0.6-0.6,0.9c-0.1,0.4-0.2,0.7-0.2,1.1v0   c0,0.4,0.1,0.8,0.2,1.2s0.3,0.7,0.6,0.9c0.2,0.3,0.5,0.5,0.9,0.6c0.3,0.1,0.7,0.2,1.2,0.2c0.2,0,0.4,0,0.6-0.1   c0.2,0,0.4-0.1,0.6-0.2c0.2-0.1,0.3-0.1,0.5-0.2s0.3-0.2,0.4-0.3v-1.9h-2.2v-0.4h2.6v2.5C92.6,157.9,92.2,158.1,91.8,158.3z"/>
	<path d="M101.6,158.5l-4.6-5.8v5.8h-0.5V152H97l4.5,5.6V152h0.5v6.5H101.6z"/>
	<path d="M115.2,158.6l-1.1-1.2c-0.3,0.4-0.6,0.6-1,0.8c-0.4,0.2-0.8,0.3-1.2,0.3c-0.3,0-0.5,0-0.8-0.1c-0.2-0.1-0.5-0.2-0.6-0.4   c-0.2-0.2-0.3-0.4-0.4-0.6c-0.1-0.2-0.2-0.5-0.2-0.7c0-0.4,0.1-0.8,0.4-1.1c0.3-0.3,0.7-0.6,1.2-0.8c-0.2-0.3-0.4-0.5-0.5-0.7   c-0.1-0.2-0.2-0.5-0.2-0.7c0-0.2,0-0.4,0.1-0.6s0.2-0.3,0.3-0.5s0.3-0.2,0.5-0.3c0.2-0.1,0.4-0.1,0.7-0.1c0.2,0,0.4,0,0.6,0.1   s0.3,0.2,0.5,0.3c0.1,0.1,0.2,0.3,0.3,0.5c0.1,0.2,0.1,0.4,0.1,0.6c0,0.4-0.1,0.8-0.4,1c-0.3,0.3-0.7,0.5-1.2,0.7l1.7,1.8   c0.2-0.2,0.3-0.5,0.4-0.7c0.1-0.3,0.3-0.5,0.4-0.8l0.4,0.2c-0.1,0.3-0.3,0.6-0.5,0.9c-0.2,0.3-0.3,0.6-0.5,0.8l1.2,1.2L115.2,158.6   z M111.9,155.2c-0.5,0.2-0.9,0.4-1.1,0.7c-0.2,0.3-0.4,0.6-0.4,0.9c0,0.2,0,0.4,0.1,0.6c0.1,0.2,0.2,0.3,0.3,0.4   c0.1,0.1,0.3,0.2,0.5,0.3c0.2,0.1,0.4,0.1,0.6,0.1c0.4,0,0.7-0.1,1-0.3c0.3-0.2,0.6-0.4,0.9-0.7L111.9,155.2z M113.2,152.6   c-0.2-0.2-0.4-0.3-0.7-0.3c-0.2,0-0.3,0-0.5,0.1c-0.1,0.1-0.3,0.1-0.4,0.2c-0.1,0.1-0.2,0.2-0.2,0.3c-0.1,0.1-0.1,0.3-0.1,0.4   c0,0.1,0,0.2,0,0.3s0.1,0.2,0.1,0.3c0.1,0.1,0.1,0.2,0.2,0.3c0.1,0.1,0.2,0.3,0.4,0.4c0.9-0.3,1.4-0.8,1.4-1.4   C113.5,153,113.4,152.8,113.2,152.6z"/>
	<path d="M128.5,157.9c-0.2,0.1-0.4,0.3-0.6,0.4c-0.2,0.1-0.4,0.2-0.7,0.2c-0.2,0.1-0.5,0.1-0.8,0.1c-0.5,0-0.9-0.1-1.3-0.3   c-0.4-0.2-0.7-0.4-1-0.7c-0.3-0.3-0.5-0.7-0.7-1.1c-0.2-0.4-0.2-0.8-0.2-1.3v0c0-0.5,0.1-0.9,0.2-1.3c0.2-0.4,0.4-0.8,0.7-1.1   c0.3-0.3,0.6-0.5,1-0.7c0.4-0.2,0.8-0.3,1.3-0.3c0.3,0,0.6,0,0.8,0.1c0.2,0,0.5,0.1,0.7,0.2c0.2,0.1,0.4,0.2,0.6,0.3   c0.2,0.1,0.3,0.3,0.5,0.4l-0.3,0.4c-0.1-0.1-0.3-0.3-0.4-0.4c-0.2-0.1-0.3-0.2-0.5-0.3c-0.2-0.1-0.4-0.1-0.6-0.2   c-0.2,0-0.4-0.1-0.7-0.1c-0.4,0-0.8,0.1-1.1,0.2s-0.6,0.4-0.9,0.6c-0.2,0.3-0.4,0.6-0.6,0.9s-0.2,0.7-0.2,1.1v0   c0,0.4,0.1,0.8,0.2,1.1c0.1,0.4,0.3,0.7,0.6,0.9c0.2,0.3,0.5,0.5,0.9,0.6c0.3,0.2,0.7,0.2,1.1,0.2c0.5,0,0.9-0.1,1.2-0.3   c0.3-0.2,0.7-0.4,1-0.8l0.3,0.3C128.8,157.6,128.7,157.8,128.5,157.9z"/>
	<path d="M138,156.5c-0.2,0.4-0.4,0.8-0.7,1.1c-0.3,0.3-0.6,0.6-1,0.7c-0.4,0.2-0.9,0.3-1.3,0.3c-0.5,0-0.9-0.1-1.3-0.3   c-0.4-0.2-0.7-0.4-1-0.7s-0.5-0.7-0.7-1.1c-0.2-0.4-0.2-0.8-0.2-1.3v0c0-0.4,0.1-0.9,0.2-1.3c0.2-0.4,0.4-0.8,0.7-1.1   c0.3-0.3,0.6-0.6,1-0.7c0.4-0.2,0.8-0.3,1.3-0.3c0.5,0,0.9,0.1,1.3,0.3c0.4,0.2,0.7,0.4,1,0.7s0.5,0.7,0.7,1.1   c0.2,0.4,0.2,0.8,0.2,1.3c0,0,0,0,0,0C138.3,155.7,138.2,156.1,138,156.5z M137.8,155.2c0-0.4-0.1-0.8-0.2-1.1   c-0.1-0.4-0.3-0.7-0.6-0.9c-0.2-0.3-0.5-0.5-0.9-0.6c-0.3-0.2-0.7-0.2-1.1-0.2s-0.8,0.1-1.1,0.2c-0.3,0.2-0.6,0.4-0.9,0.6   c-0.2,0.3-0.4,0.6-0.6,0.9c-0.1,0.4-0.2,0.7-0.2,1.1v0c0,0.4,0.1,0.8,0.2,1.1c0.1,0.4,0.3,0.7,0.6,0.9c0.2,0.3,0.5,0.5,0.9,0.6   s0.7,0.2,1.1,0.2s0.8-0.1,1.1-0.2c0.3-0.2,0.6-0.4,0.9-0.6c0.2-0.3,0.4-0.6,0.6-0.9C137.7,156,137.8,155.7,137.8,155.2L137.8,155.2   z"/>
	<path d="M146.9,158.5l-4.6-5.8v5.8h-0.5V152h0.5l4.5,5.6V152h0.5v6.5H146.9z"/>
	<path d="M155.2,157.5c-0.1,0.2-0.3,0.4-0.4,0.6s-0.4,0.3-0.7,0.4c-0.3,0.1-0.6,0.1-0.9,0.1c-0.5,0-1-0.1-1.4-0.3s-0.8-0.4-1.2-0.8   l0.3-0.4c0.2,0.2,0.4,0.3,0.5,0.4c0.2,0.1,0.4,0.2,0.5,0.3s0.4,0.1,0.6,0.2s0.4,0.1,0.7,0.1s0.5,0,0.7-0.1c0.2-0.1,0.4-0.2,0.5-0.3   c0.1-0.1,0.3-0.2,0.3-0.4c0.1-0.2,0.1-0.3,0.1-0.5v0c0-0.2,0-0.3-0.1-0.5c-0.1-0.1-0.1-0.3-0.3-0.4c-0.1-0.1-0.3-0.2-0.6-0.3   c-0.2-0.1-0.5-0.2-0.9-0.2c-0.4-0.1-0.7-0.2-1-0.3s-0.5-0.2-0.7-0.4c-0.2-0.1-0.3-0.3-0.4-0.5s-0.1-0.4-0.1-0.7v0   c0-0.2,0.1-0.5,0.2-0.7c0.1-0.2,0.2-0.4,0.4-0.5s0.4-0.3,0.7-0.4c0.3-0.1,0.5-0.1,0.8-0.1c0.5,0,0.9,0.1,1.2,0.2   c0.3,0.1,0.7,0.3,1,0.6l-0.3,0.4c-0.3-0.3-0.6-0.5-0.9-0.6c-0.3-0.1-0.6-0.2-1-0.2c-0.2,0-0.5,0-0.7,0.1c-0.2,0.1-0.4,0.2-0.5,0.3   s-0.2,0.2-0.3,0.4s-0.1,0.3-0.1,0.5v0c0,0.2,0,0.3,0.1,0.5c0.1,0.1,0.1,0.3,0.3,0.4c0.1,0.1,0.3,0.2,0.6,0.3s0.6,0.2,0.9,0.3   c0.8,0.2,1.3,0.4,1.6,0.7c0.3,0.3,0.5,0.7,0.5,1.1v0C155.4,157.1,155.4,157.3,155.2,157.5z"/>
	<path d="M161,152.4v6.1h-0.5v-6.1h-2.3V152h5v0.4H161z"/>
	<path d="M171.3,158.5l-2.1-2.7h-2.1v2.7h-0.5V152h2.7c0.4,0,0.7,0,1,0.1c0.3,0.1,0.5,0.2,0.7,0.4c0.2,0.2,0.4,0.4,0.5,0.6   c0.1,0.2,0.2,0.5,0.2,0.7v0c0,0.3,0,0.5-0.1,0.7s-0.2,0.4-0.4,0.6s-0.4,0.3-0.6,0.4c-0.2,0.1-0.5,0.2-0.8,0.2l2.1,2.8H171.3z    M171.2,153.9c0-0.4-0.2-0.8-0.5-1c-0.3-0.3-0.8-0.4-1.4-0.4h-2.2v2.9h2.2c0.3,0,0.5,0,0.8-0.1s0.4-0.2,0.6-0.3s0.3-0.3,0.4-0.5   S171.2,154.1,171.2,153.9L171.2,153.9z"/>
	<path d="M180.3,157c-0.1,0.4-0.3,0.7-0.5,0.9c-0.2,0.2-0.5,0.4-0.8,0.5c-0.3,0.1-0.7,0.2-1.1,0.2c-0.4,0-0.7-0.1-1.1-0.2   c-0.3-0.1-0.6-0.3-0.8-0.5c-0.2-0.2-0.4-0.5-0.6-0.9c-0.1-0.3-0.2-0.7-0.2-1.2V152h0.5v3.7c0,0.8,0.2,1.4,0.6,1.8   c0.4,0.4,0.9,0.6,1.6,0.6c0.3,0,0.6,0,0.9-0.1c0.3-0.1,0.5-0.2,0.7-0.4c0.2-0.2,0.3-0.4,0.4-0.7c0.1-0.3,0.2-0.6,0.2-1V152h0.5v3.7   C180.5,156.2,180.4,156.6,180.3,157z"/>
	<path d="M189.2,157.9c-0.2,0.1-0.4,0.3-0.6,0.4c-0.2,0.1-0.4,0.2-0.7,0.2c-0.2,0.1-0.5,0.1-0.8,0.1c-0.5,0-0.9-0.1-1.3-0.3   c-0.4-0.2-0.7-0.4-1-0.7c-0.3-0.3-0.5-0.7-0.7-1.1c-0.2-0.4-0.2-0.8-0.2-1.3v0c0-0.5,0.1-0.9,0.2-1.3c0.2-0.4,0.4-0.8,0.7-1.1   s0.6-0.5,1-0.7c0.4-0.2,0.8-0.3,1.3-0.3c0.3,0,0.6,0,0.8,0.1c0.2,0,0.5,0.1,0.7,0.2c0.2,0.1,0.4,0.2,0.6,0.3   c0.2,0.1,0.3,0.3,0.5,0.4l-0.3,0.4c-0.1-0.1-0.3-0.3-0.4-0.4c-0.2-0.1-0.3-0.2-0.5-0.3c-0.2-0.1-0.4-0.1-0.6-0.2   c-0.2,0-0.4-0.1-0.7-0.1c-0.4,0-0.8,0.1-1.1,0.2s-0.6,0.4-0.9,0.6s-0.4,0.6-0.6,0.9c-0.1,0.4-0.2,0.7-0.2,1.1v0   c0,0.4,0.1,0.8,0.2,1.1c0.1,0.4,0.3,0.7,0.6,0.9s0.5,0.5,0.9,0.6c0.3,0.2,0.7,0.2,1.1,0.2c0.5,0,0.9-0.1,1.2-0.3s0.7-0.4,1-0.8   l0.3,0.3C189.6,157.6,189.4,157.8,189.2,157.9z"/>
	<path d="M195.3,152.4v6.1h-0.5v-6.1h-2.3V152h5v0.4H195.3z"/>
	<path d="M201,158.5V152h0.5v6.5H201z"/>
	<path d="M211.3,156.5c-0.2,0.4-0.4,0.8-0.7,1.1c-0.3,0.3-0.6,0.6-1,0.7c-0.4,0.2-0.9,0.3-1.3,0.3c-0.5,0-0.9-0.1-1.3-0.3   c-0.4-0.2-0.7-0.4-1-0.7c-0.3-0.3-0.5-0.7-0.7-1.1s-0.2-0.8-0.2-1.3v0c0-0.4,0.1-0.9,0.2-1.3c0.2-0.4,0.4-0.8,0.7-1.1   c0.3-0.3,0.6-0.6,1-0.7c0.4-0.2,0.8-0.3,1.3-0.3c0.5,0,0.9,0.1,1.3,0.3c0.4,0.2,0.7,0.4,1,0.7c0.3,0.3,0.5,0.7,0.7,1.1   s0.2,0.8,0.2,1.3c0,0,0,0,0,0C211.6,155.7,211.5,156.1,211.3,156.5z M211.1,155.2c0-0.4-0.1-0.8-0.2-1.1c-0.1-0.4-0.3-0.7-0.6-0.9   s-0.5-0.5-0.9-0.6c-0.3-0.2-0.7-0.2-1.1-0.2s-0.8,0.1-1.1,0.2s-0.6,0.4-0.9,0.6c-0.2,0.3-0.4,0.6-0.6,0.9c-0.1,0.4-0.2,0.7-0.2,1.1   v0c0,0.4,0.1,0.8,0.2,1.1c0.1,0.4,0.3,0.7,0.6,0.9s0.5,0.5,0.9,0.6s0.7,0.2,1.1,0.2s0.8-0.1,1.1-0.2c0.3-0.2,0.6-0.4,0.9-0.6   s0.4-0.6,0.6-0.9C211,156,211.1,155.7,211.1,155.2L211.1,155.2z"/>
	<path d="M220.2,158.5l-4.6-5.8v5.8h-0.5V152h0.5l4.5,5.6V152h0.5v6.5H220.2z"/>
</g>
</svg>