<svg xmlns="http://www.w3.org/2000/svg" xmlns:xlink="http://www.w3.org/1999/xlink" id="Layer_2" x="0px" y="0px" viewBox="0 0 280.2 85.9" xml:space="preserve">
<g>
	<polygon points="219.6,75.5 139.8,83.9 61.3,76.4 0,76.4 0,78.4 61.2,78.4 139.7,85.9 139.8,85.9 219.6,77.5 280.2,77.5    280.2,75.5  "/>
	<path d="M138.8,76.4L138.8,76.4l0.8,0.1l0.1,0l0.1,0l0.1,0l0.2,0h0.8v-0.1l78.8-8.3h53.7v-2h-53V25.4L140.1,0.1L139.8,0l-80,25.3   v41.7H7.6v2l53.1,0L138.8,76.4z M138.8,74.4l-6.5-0.6V4.5l6.5-2V74.4z M130.3,73.6l-6.8-0.7V7.3l6.8-2.2V73.6z M121.4,72.7   l-6.3-0.6V9.9l6.3-2V72.7z M113.2,71.9l-7.3-0.7V12.8l7.3-2.3V71.9z M103.9,71L97,70.4V15.6l6.8-2.2V71z M95,70.2l-6.7-0.6V18.3   l6.7-2.1V70.2z M86.3,69.3l-7.1-0.7h0.5V21.1l6.6-2.1V69.3z M77.7,68.5l-7.4-0.7V24l7.4-2.4V68.5z M218.3,66.1l-77.6,8.2v-72   l77.6,24.5V66.1z M68.3,24.7v42.9L61.8,67V26.7L68.3,24.7z"/>
</g>
</svg>